<svg id="kity_svg_6" xmlns="http://www.w3.org/2000/svg" xmlns:xlink="http://www.w3.org/1999/xlink" version="1.1" width="1408" height="1434" style="background: rgb(251, 251, 251); visibility: visible;" viewBox="0 0 1408 1434"><defs id="kity_defs_7"><linearGradient id="kity_linearGradient_17" x1="0" y1="0" x2="0" y2="1"><stop id="kity_stop_18" offset="0" stop-color="rgb(255, 255, 255)"></stop><stop id="kity_stop_19" offset="1" stop-color="rgb(204, 204, 204)"></stop></linearGradient><marker id="kity_marker_2" orient="auto" refX="6" refY="0" viewBox="-7 -7 14 14" markerWidth="7" markerHeight="7" markerUnits="userSpaceOnUse"><path id="kity_path_3" fill="rgb(115, 161, 191)" stroke="none" d="M6,0A6,6,0,1,1,-6,0A6,6,0,1,1,6,0"></path></marker></defs><g id="kity_g_8"><g id="minder1" text-rendering="optimize-speed"><g id="minder_connect_group1"><path id="kity_path_31" fill="none" stroke="rgb(115, 161, 191)" stroke-width="1" d="M157.5,717.5A255,543,0,0,1,412.5,174.5"></path><path id="kity_path_33" fill="none" stroke="rgb(115, 161, 191)" stroke-width="1" d="M525.5,174.5C545.5,174.5,545.5,31.5,565.5,31.5"></path><path id="kity_path_35" fill="none" stroke="rgb(115, 161, 191)" stroke-width="1" d="M762.5,31.5C782.5,31.5,782.5,31.5,802.5,31.5"></path><path id="kity_path_37" fill="none" stroke="rgb(115, 161, 191)" stroke-width="1" d="M525.5,174.5C545.5,174.5,545.5,109.5,565.5,109.5"></path><path id="kity_path_39" fill="none" stroke="rgb(115, 161, 191)" stroke-width="1" d="M695.5,109.5C715.5,109.5,715.5,83.5,735.5,83.5"></path><path id="kity_path_41" fill="none" stroke="rgb(115, 161, 191)" stroke-width="1" d="M695.5,109.5C715.5,109.5,715.5,135.5,735.5,135.5"></path><path id="kity_path_43" fill="none" stroke="rgb(115, 161, 191)" stroke-width="1" d="M525.5,174.5C545.5,174.5,545.5,187.5,565.5,187.5"></path><path id="kity_path_45" fill="none" stroke="rgb(115, 161, 191)" stroke-width="1" d="M634.5,187.5C654.5,187.5,654.5,187.5,674.5,187.5"></path><path id="kity_path_47" fill="none" stroke="rgb(115, 161, 191)" stroke-width="1" d="M525.5,174.5C545.5,174.5,545.5,239.5,565.5,239.5"></path><path id="kity_path_49" fill="none" stroke="rgb(115, 161, 191)" stroke-width="1" d="M659.5,239.5C679.5,239.5,679.5,239.5,699.5,239.5"></path><path id="kity_path_51" fill="none" stroke="rgb(115, 161, 191)" stroke-width="1" d="M525.5,174.5C545.5,174.5,545.5,317.5,565.5,317.5"></path><path id="kity_path_53" fill="none" stroke="rgb(115, 161, 191)" stroke-width="1" d="M610.5,317.5C630.5,317.5,630.5,291.5,650.5,291.5"></path><path id="kity_path_55" fill="none" stroke="rgb(115, 161, 191)" stroke-width="1" d="M720.5,291.5C740.5,291.5,740.5,291.5,760.5,291.5"></path><path id="kity_path_57" fill="none" stroke="rgb(115, 161, 191)" stroke-width="1" d="M610.5,317.5C630.5,317.5,630.5,343.5,650.5,343.5"></path><path id="kity_path_59" fill="none" stroke="rgb(115, 161, 191)" stroke-width="1" d="M719.5,343.5C739.5,343.5,739.5,343.5,759.5,343.5"></path><path id="kity_path_61" fill="none" stroke="rgb(115, 161, 191)" stroke-width="1" d="M157.5,717.5A255,19,0,0,1,412.5,698.5"></path><path id="kity_path_63" fill="none" stroke="rgb(115, 161, 191)" stroke-width="1" d="M540.5,698.5C560.5,698.5,560.5,497.5,580.5,497.5"></path><path id="kity_path_65" fill="none" stroke="rgb(115, 161, 191)" stroke-width="1" d="M661.5,497.5C687,497.5,687,432.5,712.5,432.5"></path><path id="kity_path_67" fill="none" stroke="rgb(115, 161, 191)" stroke-width="1" d="M928.5,432.5C948.5,432.5,948.5,406.5,968.5,406.5"></path><path id="kity_path_69" fill="none" stroke="rgb(115, 161, 191)" stroke-width="1" d="M928.5,432.5C948.5,432.5,948.5,458.5,968.5,458.5"></path><path id="kity_path_71" fill="none" stroke="rgb(115, 161, 191)" stroke-width="1" d="M661.5,497.5C681.5,497.5,681.5,562.5,701.5,562.5"></path><path id="kity_path_73" fill="none" stroke="rgb(115, 161, 191)" stroke-width="1" d="M939.5,562.5C959.5,562.5,959.5,510.5,979.5,510.5"></path><path id="kity_path_75" fill="none" stroke="rgb(115, 161, 191)" stroke-width="1" d="M939.5,562.5C959.5,562.5,959.5,562.5,979.5,562.5"></path><path id="kity_path_77" fill="none" stroke="rgb(115, 161, 191)" stroke-width="1" d="M939.5,562.5C959.5,562.5,959.5,614.5,979.5,614.5"></path><path id="kity_path_79" fill="none" stroke="rgb(115, 161, 191)" stroke-width="1" d="M540.5,698.5C560.5,698.5,560.5,692.5,580.5,692.5"></path><path id="kity_path_81" fill="none" stroke="rgb(115, 161, 191)" stroke-width="1" d="M661.5,692.5C681.5,692.5,681.5,666.5,701.5,666.5"></path><path id="kity_path_83" fill="none" stroke="rgb(115, 161, 191)" stroke-width="1" d="M661.5,692.5C681.5,692.5,681.5,718.5,701.5,718.5"></path><path id="kity_path_85" fill="none" stroke="rgb(115, 161, 191)" stroke-width="1" d="M1158.5,718.5C1178.5,718.5,1178.5,718.5,1198.5,718.5"></path><path id="kity_path_87" fill="none" stroke="rgb(115, 161, 191)" stroke-width="1" d="M540.5,698.5C560.5,698.5,560.5,796.5,580.5,796.5"></path><path id="kity_path_89" fill="none" stroke="rgb(115, 161, 191)" stroke-width="1" d="M650.5,796.5C670.5,796.5,670.5,770.5,690.5,770.5"></path><path id="kity_path_91" fill="none" stroke="rgb(115, 161, 191)" stroke-width="1" d="M650.5,796.5C670.5,796.5,670.5,822.5,690.5,822.5"></path><path id="kity_path_93" fill="none" stroke="rgb(115, 161, 191)" stroke-width="1" d="M954.5,822.5C974.5,822.5,974.5,822.5,994.5,822.5"></path><path id="kity_path_95" fill="none" stroke="rgb(115, 161, 191)" stroke-width="1" d="M540.5,698.5C560.5,698.5,560.5,900.5,580.5,900.5"></path><path id="kity_path_97" fill="none" stroke="rgb(115, 161, 191)" stroke-width="1" d="M638.5,900.5C658.5,900.5,658.5,874.5,678.5,874.5"></path><path id="kity_path_99" fill="none" stroke="rgb(115, 161, 191)" stroke-width="1" d="M867.5,874.5C887.5,874.5,887.5,874.5,907.5,874.5"></path><path id="kity_path_101" fill="none" stroke="rgb(115, 161, 191)" stroke-width="1" d="M638.5,900.5C667,900.5,667,926.5,695.5,926.5"></path><path id="kity_path_103" fill="none" stroke="rgb(115, 161, 191)" stroke-width="1" d="M1183.5,926.5C1203.5,926.5,1203.5,926.5,1223.5,926.5"></path><path id="kity_path_105" fill="none" stroke="rgb(115, 161, 191)" stroke-width="1" d="M157.5,717.5A255,543,0,0,0,412.5,1260.5"></path><path id="kity_path_107" fill="none" stroke="rgb(115, 161, 191)" stroke-width="1" d="M512.5,1260.5C532.5,1260.5,532.5,1260.5,552.5,1260.5"></path><path id="kity_path_109" fill="none" stroke="rgb(115, 161, 191)" stroke-width="1" d="M614.5,1260.5C634.5,1260.5,634.5,1143.5,654.5,1143.5"></path><path id="kity_path_111" fill="none" stroke="rgb(115, 161, 191)" stroke-width="1" d="M711.5,1143.5C731.5,1143.5,731.5,1065.5,751.5,1065.5"></path><path id="kity_path_113" fill="none" stroke="rgb(115, 161, 191)" stroke-width="1" d="M856.5,1065.5C876.5,1065.5,876.5,987.5,896.5,987.5"></path><path id="kity_path_115" fill="none" stroke="rgb(115, 161, 191)" stroke-width="1" d="M856.5,1065.5C876.5,1065.5,876.5,1039.5,896.5,1039.5"></path><path id="kity_path_117" fill="none" stroke="rgb(115, 161, 191)" stroke-width="1" d="M856.5,1065.5C876.5,1065.5,876.5,1091.5,896.5,1091.5"></path><path id="kity_path_119" fill="none" stroke="rgb(115, 161, 191)" stroke-width="1" d="M856.5,1065.5C876.5,1065.5,876.5,1143.5,896.5,1143.5"></path><path id="kity_path_121" fill="none" stroke="rgb(115, 161, 191)" stroke-width="1" d="M711.5,1143.5C731.5,1143.5,731.5,1221.5,751.5,1221.5"></path><path id="kity_path_123" fill="none" stroke="rgb(115, 161, 191)" stroke-width="1" d="M821.5,1221.5C841.5,1221.5,841.5,1195.5,861.5,1195.5"></path><path id="kity_path_125" fill="none" stroke="rgb(115, 161, 191)" stroke-width="1" d="M821.5,1221.5C841.5,1221.5,841.5,1247.5,861.5,1247.5"></path><path id="kity_path_127" fill="none" stroke="rgb(115, 161, 191)" stroke-width="1" d="M614.5,1260.5C634.5,1260.5,634.5,1299.5,654.5,1299.5"></path><path id="kity_path_129" fill="none" stroke="rgb(115, 161, 191)" stroke-width="1" d="M698.5,1299.5C718.5,1299.5,718.5,1299.5,738.5,1299.5"></path><path id="kity_path_131" fill="none" stroke="rgb(115, 161, 191)" stroke-width="1" d="M614.5,1260.5C634.5,1260.5,634.5,1377.5,654.5,1377.5"></path><path id="kity_path_133" fill="none" stroke="rgb(115, 161, 191)" stroke-width="1" d="M699.5,1377.5C719.5,1377.5,719.5,1351.5,739.5,1351.5"></path><path id="kity_path_135" fill="none" stroke="rgb(115, 161, 191)" stroke-width="1" d="M699.5,1377.5C719.5,1377.5,719.5,1403.5,739.5,1403.5"></path></g><g id="minder_node1"><path id="node_outline1" fill="rgb(115, 161, 191)" stroke="rgb(115, 161, 191)" d="M25.5,697.5h264a5,5,0,0,1,5,5v30a5,5,0,0,1,-5,5h-264a5,5,0,0,1,-5,-5v-30a5,5,0,0,1,5,-5z" stroke-width="3"></path><g id="node_text1" fill="white"><text id="kity_text_22" text-rendering="inherit" font-size="16" dy=".8em" y="707.0999999046326" x="44.5">Java后端服务明显变慢诊断思路</text></g></g><g id="kity_g_12"><path id="kity_path_13" fill="none" stroke="none" d="M44.5,717.5h0v0h0z"></path></g><g id="kity_g_14"><path id="kity_path_15" fill="none" stroke="none" d="M44.5,717.5h0v0h0z"></path><path id="kity_path_16" fill="none" stroke="none"></path></g><g id="minder_node2"><g id="node_expander15" style="cursor: pointer;"><path id="kity_path_338" fill="white" stroke="gray" d="M413.5,174.5A6,6,0,1,1,401.5,174.5A6,6,0,1,1,413.5,174.5"></path><path id="kity_path_339" fill="none" stroke="gray" d="M403,174.5L412,174.5"></path></g><path id="node_outline16" fill="rgb(238, 243, 246)" stroke="rgb(115, 161, 191)" d="M417.5,161.5h105a3,3,0,0,1,3,3v20a3,3,0,0,1,-3,3h-105a3,3,0,0,1,-3,-3v-20a3,3,0,0,1,3,-3z" stroke-width="1"></path><g id="node_text16" fill="black"><text id="kity_text_165" text-rendering="inherit" font-size="14" dy=".8em" y="165.40000009536743" x="434.5">服务器资源</text></g></g><g id="minder_node3"><g id="node_expander2" style="cursor: pointer;"><path id="kity_path_299" fill="white" stroke="gray" d="M565.5,31.5A6,6,0,1,1,553.5,31.5A6,6,0,1,1,565.5,31.5"></path><path id="kity_path_300" fill="none" stroke="gray" d="M555,31.5L564,31.5"></path></g><path id="node_outline3" fill="none" stroke="none" d="M570.5,20.5h187a5,5,0,0,1,5,5v12a5,5,0,0,1,-5,5h-187a5,5,0,0,1,-5,-5v-12a5,5,0,0,1,5,-5z"></path><g id="node_text3" fill="black"><text id="kity_text_139" text-rendering="inherit" font-size="12" dy=".8em" y="23.700000047683716" x="575.5">其他应用占用CPU高，如chrome</text></g></g><g id="minder_node4"><g id="node_expander1" style="cursor: pointer;" display="none"><path id="kity_path_296" fill="white" stroke="gray" d="M802.5,31.5A6,6,0,1,1,790.5,31.5A6,6,0,1,1,802.5,31.5"></path><path id="kity_path_297" fill="none" stroke="gray"></path></g><path id="node_outline2" fill="none" stroke="none" d="M807.5,20.5h75a5,5,0,0,1,5,5v12a5,5,0,0,1,-5,5h-75a5,5,0,0,1,-5,-5v-12a5,5,0,0,1,5,-5z"></path><g id="node_text2" fill="black"><text id="kity_text_137" text-rendering="inherit" font-size="12" dy=".8em" y="23.700000047683716" x="812.5">top，输入P</text></g></g><g id="minder_node5"><g id="node_expander5" style="cursor: pointer;"><path id="kity_path_308" fill="white" stroke="gray" d="M565.5,109.5A6,6,0,1,1,553.5,109.5A6,6,0,1,1,565.5,109.5"></path><path id="kity_path_309" fill="none" stroke="gray" d="M555,109.5L564,109.5"></path></g><path id="node_outline6" fill="none" stroke="none" d="M570.5,98.5h120a5,5,0,0,1,5,5v12a5,5,0,0,1,-5,5h-120a5,5,0,0,1,-5,-5v-12a5,5,0,0,1,5,-5z"></path><g id="node_text6" fill="black"><text id="kity_text_145" text-rendering="inherit" font-size="12" dy=".8em" y="101.70000004768372" x="575.5">其他应用占用内存高</text></g></g><g id="minder_node6"><g id="node_expander3" style="cursor: pointer;" display="none"><path id="kity_path_302" fill="white" stroke="gray" d="M735.5,83.5A6,6,0,1,1,723.5,83.5A6,6,0,1,1,735.5,83.5"></path><path id="kity_path_303" fill="none" stroke="gray"></path></g><path id="node_outline4" fill="none" stroke="none" d="M740.5,72.5h78a5,5,0,0,1,5,5v12a5,5,0,0,1,-5,5h-78a5,5,0,0,1,-5,-5v-12a5,5,0,0,1,5,-5z"></path><g id="node_text4" fill="black"><text id="kity_text_141" text-rendering="inherit" font-size="12" dy=".8em" y="75.70000004768372" x="745.5">top，输入M</text></g></g><g id="minder_node7"><g id="node_expander4" style="cursor: pointer;" display="none"><path id="kity_path_305" fill="white" stroke="gray" d="M735.5,135.5A6,6,0,1,1,723.5,135.5A6,6,0,1,1,735.5,135.5"></path><path id="kity_path_306" fill="none" stroke="gray"></path></g><path id="node_outline5" fill="none" stroke="none" d="M740.5,124.5h52a5,5,0,0,1,5,5v12a5,5,0,0,1,-5,5h-52a5,5,0,0,1,-5,-5v-12a5,5,0,0,1,5,-5z" stroke-width="3"></path><g id="node_text5" fill="black"><text id="kity_text_143" text-rendering="inherit" font-size="12" dy=".8em" y="127.70000004768372" x="745.5">free -m</text></g></g><g id="minder_node8"><g id="node_expander7" style="cursor: pointer;"><path id="kity_path_314" fill="white" stroke="gray" d="M565.5,187.5A6,6,0,1,1,553.5,187.5A6,6,0,1,1,565.5,187.5"></path><path id="kity_path_315" fill="none" stroke="gray" d="M555,187.5L564,187.5"></path></g><path id="node_outline8" fill="none" stroke="none" d="M570.5,176.5h59a5,5,0,0,1,5,5v12a5,5,0,0,1,-5,5h-59a5,5,0,0,1,-5,-5v-12a5,5,0,0,1,5,-5z"></path><g id="node_text8" fill="black"><text id="kity_text_149" text-rendering="inherit" font-size="12" dy=".8em" y="179.70000004768372" x="575.5">磁盘io高</text></g></g><g id="minder_node9"><g id="node_expander6" style="cursor: pointer;" display="none"><path id="kity_path_311" fill="white" stroke="gray" d="M674.5,187.5A6,6,0,1,1,662.5,187.5A6,6,0,1,1,674.5,187.5"></path><path id="kity_path_312" fill="none" stroke="gray"></path></g><path id="node_outline7" fill="none" stroke="none" d="M679.5,176.5h41a5,5,0,0,1,5,5v12a5,5,0,0,1,-5,5h-41a5,5,0,0,1,-5,-5v-12a5,5,0,0,1,5,-5z"></path><g id="node_text7" fill="black"><text id="kity_text_147" text-rendering="inherit" font-size="12" dy=".8em" y="179.70000004768372" x="684.5">iotop</text></g></g><g id="minder_node10"><g id="node_expander9" style="cursor: pointer;"><path id="kity_path_320" fill="white" stroke="gray" d="M565.5,239.5A6,6,0,1,1,553.5,239.5A6,6,0,1,1,565.5,239.5"></path><path id="kity_path_321" fill="none" stroke="gray" d="M555,239.5L564,239.5"></path></g><path id="node_outline10" fill="none" stroke="none" d="M570.5,228.5h84a5,5,0,0,1,5,5v12a5,5,0,0,1,-5,5h-84a5,5,0,0,1,-5,-5v-12a5,5,0,0,1,5,-5z"></path><g id="node_text10" fill="black"><text id="kity_text_153" text-rendering="inherit" font-size="12" dy=".8em" y="231.70000004768372" x="575.5">磁盘空间不足</text></g></g><g id="minder_node11"><g id="node_expander8" style="cursor: pointer;" display="none"><path id="kity_path_317" fill="white" stroke="gray" d="M699.5,239.5A6,6,0,1,1,687.5,239.5A6,6,0,1,1,699.5,239.5"></path><path id="kity_path_318" fill="none" stroke="gray"></path></g><path id="node_outline9" fill="none" stroke="none" d="M704.5,228.5h38a5,5,0,0,1,5,5v12a5,5,0,0,1,-5,5h-38a5,5,0,0,1,-5,-5v-12a5,5,0,0,1,5,-5z"></path><g id="node_text9" fill="black"><text id="kity_text_151" text-rendering="inherit" font-size="12" dy=".8em" y="231.70000004768372" x="709.5">df -h</text></g></g><g id="minder_node12"><g id="node_expander14" style="cursor: pointer;"><path id="kity_path_335" fill="white" stroke="gray" d="M565.5,317.5A6,6,0,1,1,553.5,317.5A6,6,0,1,1,565.5,317.5"></path><path id="kity_path_336" fill="none" stroke="gray" d="M555,317.5L564,317.5"></path></g><path id="node_outline15" fill="none" stroke="none" d="M570.5,306.5h35a5,5,0,0,1,5,5v12a5,5,0,0,1,-5,5h-35a5,5,0,0,1,-5,-5v-12a5,5,0,0,1,5,-5z"></path><g id="node_text15" fill="black"><text id="kity_text_163" text-rendering="inherit" font-size="12" dy=".8em" y="309.7000000476837" x="575.5">网络</text></g></g><g id="minder_node13"><g id="node_expander11" style="cursor: pointer;"><path id="kity_path_326" fill="white" stroke="gray" d="M650.5,291.5A6,6,0,1,1,638.5,291.5A6,6,0,1,1,650.5,291.5"></path><path id="kity_path_327" fill="none" stroke="gray" d="M640,291.5L649,291.5"></path></g><path id="node_outline12" fill="none" stroke="none" d="M655.5,280.5h60a5,5,0,0,1,5,5v12a5,5,0,0,1,-5,5h-60a5,5,0,0,1,-5,-5v-12a5,5,0,0,1,5,-5z"></path><g id="node_text12" fill="black"><text id="kity_text_157" text-rendering="inherit" font-size="12" dy=".8em" y="283.7000000476837" x="660.5">带宽不足</text></g></g><g id="minder_node14"><g id="node_expander10" style="cursor: pointer;" display="none"><path id="kity_path_323" fill="white" stroke="gray" d="M760.5,291.5A6,6,0,1,1,748.5,291.5A6,6,0,1,1,760.5,291.5"></path><path id="kity_path_324" fill="none" stroke="gray"></path></g><path id="node_outline11" fill="none" stroke="none" d="M765.5,280.5h37a5,5,0,0,1,5,5v12a5,5,0,0,1,-5,5h-37a5,5,0,0,1,-5,-5v-12a5,5,0,0,1,5,-5z"></path><g id="node_text11" fill="black"><text id="kity_text_155" text-rendering="inherit" font-size="12" dy=".8em" y="283.7000000476837" x="770.5">iftop</text></g></g><g id="minder_node15"><g id="node_expander13" style="cursor: pointer;"><path id="kity_path_332" fill="white" stroke="gray" d="M650.5,343.5A6,6,0,1,1,638.5,343.5A6,6,0,1,1,650.5,343.5"></path><path id="kity_path_333" fill="none" stroke="gray" d="M640,343.5L649,343.5"></path></g><path id="node_outline14" fill="none" stroke="none" d="M655.5,332.5h59a5,5,0,0,1,5,5v12a5,5,0,0,1,-5,5h-59a5,5,0,0,1,-5,-5v-12a5,5,0,0,1,5,-5z" stroke-width="3"></path><g id="node_text14" fill="black"><text id="kity_text_161" text-rendering="inherit" font-size="12" dy=".8em" y="335.7000000476837" x="660.5">丢包严重</text></g></g><g id="minder_node16"><g id="node_expander12" style="cursor: pointer;" display="none"><path id="kity_path_329" fill="white" stroke="gray" d="M759.5,343.5A6,6,0,1,1,747.5,343.5A6,6,0,1,1,759.5,343.5"></path><path id="kity_path_330" fill="none" stroke="gray"></path></g><path id="node_outline13" fill="none" stroke="none" d="M764.5,332.5h36a5,5,0,0,1,5,5v12a5,5,0,0,1,-5,5h-36a5,5,0,0,1,-5,-5v-12a5,5,0,0,1,5,-5z"></path><g id="node_text13" fill="black"><text id="kity_text_159" text-rendering="inherit" font-size="12" dy=".8em" y="335.7000000476837" x="769.5">ping</text></g></g><g id="minder_node17"><g id="node_expander37" style="cursor: pointer;"><path id="kity_path_404" fill="white" stroke="gray" d="M413.5,698.5A6,6,0,1,1,401.5,698.5A6,6,0,1,1,413.5,698.5"></path><path id="kity_path_405" fill="none" stroke="gray" d="M403,698.5L412,698.5"></path></g><path id="node_outline38" fill="rgb(238, 243, 246)" stroke="rgb(115, 161, 191)" d="M417.5,685.5h120a3,3,0,0,1,3,3v20a3,3,0,0,1,-3,3h-120a3,3,0,0,1,-3,-3v-20a3,3,0,0,1,3,-3z" stroke-width="1"></path><g id="node_text38" fill="black"><text id="kity_text_209" text-rendering="inherit" font-size="14" dy=".8em" y="689.4000000953674" x="434.5">Java应用本身</text></g></g><g id="minder_node18"><g id="node_expander23" style="cursor: pointer;"><path id="kity_path_362" fill="white" stroke="gray" d="M580.5,497.5A6,6,0,1,1,568.5,497.5A6,6,0,1,1,580.5,497.5"></path><path id="kity_path_363" fill="none" stroke="gray" d="M570,497.5L579,497.5"></path></g><path id="node_outline24" fill="none" stroke="none" d="M585.5,486.5h71a5,5,0,0,1,5,5v12a5,5,0,0,1,-5,5h-71a5,5,0,0,1,-5,-5v-12a5,5,0,0,1,5,-5z"></path><g id="node_text24" fill="black"><text id="kity_text_181" text-rendering="inherit" font-size="12" dy=".8em" y="489.7000000476837" x="590.5">CPU占用高</text></g></g><g id="minder_node19"><g id="node_expander18" style="cursor: pointer;"><path id="kity_path_347" fill="white" stroke="gray" d="M712.5,432.5A6,6,0,1,1,700.5,432.5A6,6,0,1,1,712.5,432.5"></path><path id="kity_path_348" fill="none" stroke="gray" d="M702,432.5L711,432.5"></path></g><path id="node_outline19" fill="none" stroke="none" d="M717.5,421.5h206a5,5,0,0,1,5,5v12a5,5,0,0,1,-5,5h-206a5,5,0,0,1,-5,-5v-12a5,5,0,0,1,5,-5z"></path><g id="node_text19" fill="black"><text id="kity_text_171" text-rendering="inherit" font-size="12" dy=".8em" y="424.7000000476837" x="722.5">可能正在进行FullGC。查看JVM情况</text></g></g><g id="minder_node20"><g id="node_expander16" style="cursor: pointer;" display="none"><path id="kity_path_341" fill="white" stroke="gray" d="M968.5,406.5A6,6,0,1,1,956.5,406.5A6,6,0,1,1,968.5,406.5"></path><path id="kity_path_342" fill="none" stroke="gray"></path></g><path id="node_outline17" fill="none" stroke="none" d="M973.5,395.5h41a5,5,0,0,1,5,5v12a5,5,0,0,1,-5,5h-41a5,5,0,0,1,-5,-5v-12a5,5,0,0,1,5,-5z"></path><g id="node_text17" fill="black"><text id="kity_text_167" text-rendering="inherit" font-size="12" dy=".8em" y="398.7000000476837" x="978.5">jmap</text></g></g><g id="minder_node21"><g id="node_expander17" style="cursor: pointer;" display="none"><path id="kity_path_344" fill="white" stroke="gray" d="M968.5,458.5A6,6,0,1,1,956.5,458.5A6,6,0,1,1,968.5,458.5"></path><path id="kity_path_345" fill="none" stroke="gray"></path></g><path id="node_outline18" fill="none" stroke="none" d="M973.5,447.5h37a5,5,0,0,1,5,5v12a5,5,0,0,1,-5,5h-37a5,5,0,0,1,-5,-5v-12a5,5,0,0,1,5,-5z"></path><g id="node_text18" fill="black"><text id="kity_text_169" text-rendering="inherit" font-size="12" dy=".8em" y="450.7000000476837" x="978.5">jstat</text></g></g><g id="minder_node22"><g id="node_expander22" style="cursor: pointer;"><path id="kity_path_359" fill="white" stroke="gray" d="M701.5,562.5A6,6,0,1,1,689.5,562.5A6,6,0,1,1,701.5,562.5"></path><path id="kity_path_360" fill="none" stroke="gray" d="M691,562.5L700,562.5"></path></g><path id="node_outline23" fill="none" stroke="none" d="M706.5,551.5h228a5,5,0,0,1,5,5v12a5,5,0,0,1,-5,5h-228a5,5,0,0,1,-5,-5v-12a5,5,0,0,1,5,-5z" stroke-width="3"></path><g id="node_text23" fill="black"><text id="kity_text_179" text-rendering="inherit" font-size="12" dy=".8em" y="554.7000000476837" x="711.5">程序死循环。查找最耗CPU线程，三步走</text></g></g><g id="minder_node23"><g id="node_expander19" style="cursor: pointer;" display="none"><path id="kity_path_350" fill="white" stroke="gray" d="M979.5,510.5A6,6,0,1,1,967.5,510.5A6,6,0,1,1,979.5,510.5"></path><path id="kity_path_351" fill="none" stroke="gray"></path></g><path id="node_outline20" fill="none" stroke="none" d="M984.5,499.5h89a5,5,0,0,1,5,5v12a5,5,0,0,1,-5,5h-89a5,5,0,0,1,-5,-5v-12a5,5,0,0,1,5,-5z"></path><g id="node_text20" fill="black"><text id="kity_text_173" text-rendering="inherit" font-size="12" dy=".8em" y="502.7000000476837" x="989.5">top -p PID -H</text></g></g><g id="minder_node24"><g id="node_expander20" style="cursor: pointer;" display="none"><path id="kity_path_353" fill="white" stroke="gray" d="M979.5,562.5A6,6,0,1,1,967.5,562.5A6,6,0,1,1,979.5,562.5"></path><path id="kity_path_354" fill="none" stroke="gray"></path></g><path id="node_outline21" fill="none" stroke="none" d="M984.5,551.5h108a5,5,0,0,1,5,5v12a5,5,0,0,1,-5,5h-108a5,5,0,0,1,-5,-5v-12a5,5,0,0,1,5,-5z"></path><g id="node_text21" fill="black"><text id="kity_text_175" text-rendering="inherit" font-size="12" dy=".8em" y="554.7000000476837" x="989.5">printf '%x' 线程号</text></g></g><g id="minder_node25"><g id="node_expander21" style="cursor: pointer;" display="none"><path id="kity_path_356" fill="white" stroke="gray" d="M979.5,614.5A6,6,0,1,1,967.5,614.5A6,6,0,1,1,979.5,614.5"></path><path id="kity_path_357" fill="none" stroke="gray"></path></g><path id="node_outline22" fill="none" stroke="none" d="M984.5,603.5h45a5,5,0,0,1,5,5v12a5,5,0,0,1,-5,5h-45a5,5,0,0,1,-5,-5v-12a5,5,0,0,1,5,-5z"></path><g id="node_text22" fill="black"><text id="kity_text_177" text-rendering="inherit" font-size="12" dy=".8em" y="606.7000000476837" x="989.5">jstack</text></g></g><g id="minder_node26"><g id="node_expander27" style="cursor: pointer;"><path id="kity_path_374" fill="white" stroke="gray" d="M580.5,692.5A6,6,0,1,1,568.5,692.5A6,6,0,1,1,580.5,692.5"></path><path id="kity_path_375" fill="none" stroke="gray" d="M570,692.5L579,692.5"></path></g><path id="node_outline28" fill="none" stroke="none" d="M585.5,681.5h71a5,5,0,0,1,5,5v12a5,5,0,0,1,-5,5h-71a5,5,0,0,1,-5,-5v-12a5,5,0,0,1,5,-5z"></path><g id="node_text28" fill="black"><text id="kity_text_189" text-rendering="inherit" font-size="12" dy=".8em" y="684.7000000476837" x="590.5">内存占用高</text></g></g><g id="minder_node27"><g id="node_expander24" style="cursor: pointer;" display="none"><path id="kity_path_365" fill="white" stroke="gray" d="M701.5,666.5A6,6,0,1,1,689.5,666.5A6,6,0,1,1,701.5,666.5"></path><path id="kity_path_366" fill="none" stroke="gray"></path></g><path id="node_outline25" fill="none" stroke="none" d="M706.5,655.5h205a5,5,0,0,1,5,5v12a5,5,0,0,1,-5,5h-205a5,5,0,0,1,-5,-5v-12a5,5,0,0,1,5,-5z"></path><g id="node_text25" fill="black"><text id="kity_text_183" text-rendering="inherit" font-size="12" dy=".8em" y="658.7000000476837" x="711.5">堆外内存溢出。结合top和jmap查看</text></g></g><g id="minder_node28"><g id="node_expander26" style="cursor: pointer;"><path id="kity_path_371" fill="white" stroke="gray" d="M701.5,718.5A6,6,0,1,1,689.5,718.5A6,6,0,1,1,701.5,718.5"></path><path id="kity_path_372" fill="none" stroke="gray" d="M691,718.5L700,718.5"></path></g><path id="node_outline27" fill="none" stroke="none" d="M706.5,707.5h447a5,5,0,0,1,5,5v12a5,5,0,0,1,-5,5h-447a5,5,0,0,1,-5,-5v-12a5,5,0,0,1,5,-5z"></path><g id="node_text27" fill="black"><text id="kity_text_187" text-rendering="inherit" font-size="12" dy=".8em" y="710.7000000476837" x="711.5">堆内存溢出。老年代Old，或JDK7以前永久代Perm、JDK8之后元空间MetaSpace</text></g></g><g id="minder_node29"><g id="node_expander25" style="cursor: pointer;" display="none"><path id="kity_path_368" fill="white" stroke="gray" d="M1198.5,718.5A6,6,0,1,1,1186.5,718.5A6,6,0,1,1,1198.5,718.5"></path><path id="kity_path_369" fill="none" stroke="gray"></path></g><path id="node_outline26" fill="none" stroke="none" d="M1203.5,707.5h41a5,5,0,0,1,5,5v12a5,5,0,0,1,-5,5h-41a5,5,0,0,1,-5,-5v-12a5,5,0,0,1,5,-5z"></path><g id="node_text26" fill="black"><text id="kity_text_185" text-rendering="inherit" font-size="12" dy=".8em" y="710.7000000476837" x="1208.5">jmap</text></g></g><g id="minder_node30"><g id="node_expander31" style="cursor: pointer;"><path id="kity_path_386" fill="white" stroke="gray" d="M580.5,796.5A6,6,0,1,1,568.5,796.5A6,6,0,1,1,580.5,796.5"></path><path id="kity_path_387" fill="none" stroke="gray" d="M570,796.5L579,796.5"></path></g><path id="node_outline32" fill="none" stroke="none" d="M585.5,785.5h60a5,5,0,0,1,5,5v12a5,5,0,0,1,-5,5h-60a5,5,0,0,1,-5,-5v-12a5,5,0,0,1,5,-5z"></path><g id="node_text32" fill="black"><text id="kity_text_197" text-rendering="inherit" font-size="12" dy=".8em" y="788.7000000476837" x="590.5">线程情况</text></g></g><g id="minder_node31"><g id="node_expander28" style="cursor: pointer;" display="none"><path id="kity_path_377" fill="white" stroke="gray" d="M690.5,770.5A6,6,0,1,1,678.5,770.5A6,6,0,1,1,690.5,770.5"></path><path id="kity_path_378" fill="none" stroke="gray"></path></g><path id="node_outline29" fill="none" stroke="none" d="M695.5,759.5h132a5,5,0,0,1,5,5v12a5,5,0,0,1,-5,5h-132a5,5,0,0,1,-5,-5v-12a5,5,0,0,1,5,-5z"></path><g id="node_text29" fill="black"><text id="kity_text_191" text-rendering="inherit" font-size="12" dy=".8em" y="762.7000000476837" x="700.5">线程不足，处理不过来</text></g></g><g id="minder_node32"><g id="node_expander30" style="cursor: pointer;"><path id="kity_path_383" fill="white" stroke="gray" d="M690.5,822.5A6,6,0,1,1,678.5,822.5A6,6,0,1,1,690.5,822.5"></path><path id="kity_path_384" fill="none" stroke="gray" d="M680,822.5L689,822.5"></path></g><path id="node_outline31" fill="none" stroke="none" d="M695.5,811.5h254a5,5,0,0,1,5,5v12a5,5,0,0,1,-5,5h-254a5,5,0,0,1,-5,-5v-12a5,5,0,0,1,5,-5z"></path><g id="node_text31" fill="black"><text id="kity_text_195" text-rendering="inherit" font-size="12" dy=".8em" y="814.7000000476837" x="700.5">线程阻塞，如阻塞在数据库操作或Queue操作</text></g></g><g id="minder_node33"><g id="node_expander29" style="cursor: pointer;" display="none"><path id="kity_path_380" fill="white" stroke="gray" d="M994.5,822.5A6,6,0,1,1,982.5,822.5A6,6,0,1,1,994.5,822.5"></path><path id="kity_path_381" fill="none" stroke="gray"></path></g><path id="node_outline30" fill="none" stroke="none" d="M999.5,811.5h45a5,5,0,0,1,5,5v12a5,5,0,0,1,-5,5h-45a5,5,0,0,1,-5,-5v-12a5,5,0,0,1,5,-5z"></path><g id="node_text30" fill="black"><text id="kity_text_193" text-rendering="inherit" font-size="12" dy=".8em" y="814.7000000476837" x="1004.5">jstack</text></g></g><g id="minder_node34"><g id="node_expander36" style="cursor: pointer;"><path id="kity_path_401" fill="white" stroke="gray" d="M580.5,900.5A6,6,0,1,1,568.5,900.5A6,6,0,1,1,580.5,900.5"></path><path id="kity_path_402" fill="none" stroke="gray" d="M570,900.5L579,900.5"></path></g><path id="node_outline37" fill="none" stroke="none" d="M585.5,889.5h48a5,5,0,0,1,5,5v12a5,5,0,0,1,-5,5h-48a5,5,0,0,1,-5,-5v-12a5,5,0,0,1,5,-5z"></path><g id="node_text37" fill="black"><text id="kity_text_207" text-rendering="inherit" font-size="12" dy=".8em" y="892.7000000476837" x="590.5">句柄数</text></g></g><g id="minder_node35"><g id="node_expander33" style="cursor: pointer;"><path id="kity_path_392" fill="white" stroke="gray" d="M678.5,874.5A6,6,0,1,1,666.5,874.5A6,6,0,1,1,678.5,874.5"></path><path id="kity_path_393" fill="none" stroke="gray" d="M668,874.5L677,874.5"></path></g><path id="node_outline34" fill="none" stroke="none" d="M683.5,863.5h179a5,5,0,0,1,5,5v12a5,5,0,0,1,-5,5h-179a5,5,0,0,1,-5,-5v-12a5,5,0,0,1,5,-5z"></path><g id="node_text34" fill="black"><text id="kity_text_201" text-rendering="inherit" font-size="12" dy=".8em" y="866.7000000476837" x="688.5">程序需要句柄数超过服务器限制</text></g></g><g id="minder_node36"><g id="node_expander32" style="cursor: pointer;" display="none"><path id="kity_path_389" fill="white" stroke="gray" d="M907.5,874.5A6,6,0,1,1,895.5,874.5A6,6,0,1,1,907.5,874.5"></path><path id="kity_path_390" fill="none" stroke="gray"></path></g><path id="node_outline33" fill="none" stroke="none" d="M912.5,863.5h59a5,5,0,0,1,5,5v12a5,5,0,0,1,-5,5h-59a5,5,0,0,1,-5,-5v-12a5,5,0,0,1,5,-5z"></path><g id="node_text33" fill="black"><text id="kity_text_199" text-rendering="inherit" font-size="12" dy=".8em" y="866.7000000476837" x="917.5">ulimit -u</text></g></g><g id="minder_node37"><g id="node_expander35" style="cursor: pointer;"><path id="kity_path_398" fill="white" stroke="gray" d="M695.5,926.5A6,6,0,1,1,683.5,926.5A6,6,0,1,1,695.5,926.5"></path><path id="kity_path_399" fill="none" stroke="gray" d="M685,926.5L694,926.5"></path></g><path id="node_outline36" fill="none" stroke="none" d="M700.5,915.5h478a5,5,0,0,1,5,5v12a5,5,0,0,1,-5,5h-478a5,5,0,0,1,-5,-5v-12a5,5,0,0,1,5,-5z"></path><g id="node_text36" fill="black"><text id="kity_text_205" text-rendering="inherit" font-size="12" dy=".8em" y="918.7000000476837" x="705.5">句柄未正确关闭。如大量socket句柄处于CLOSE_WAIT状态，报too many connections</text></g></g><g id="minder_node38"><g id="node_expander34" style="cursor: pointer;" display="none"><path id="kity_path_395" fill="white" stroke="gray" d="M1223.5,926.5A6,6,0,1,1,1211.5,926.5A6,6,0,1,1,1223.5,926.5"></path><path id="kity_path_396" fill="none" stroke="gray"></path></g><path id="node_outline35" fill="none" stroke="none" d="M1228.5,915.5h81a5,5,0,0,1,5,5v12a5,5,0,0,1,-5,5h-81a5,5,0,0,1,-5,-5v-12a5,5,0,0,1,5,-5z"></path><g id="node_text35" fill="black"><text id="kity_text_203" text-rendering="inherit" font-size="12" dy=".8em" y="918.7000000476837" x="1233.5">netstat -ano </text></g></g><g id="minder_node39"><g id="node_expander53" style="cursor: pointer;"><path id="kity_path_452" fill="white" stroke="gray" d="M413.5,1260.5A6,6,0,1,1,401.5,1260.5A6,6,0,1,1,413.5,1260.5"></path><path id="kity_path_453" fill="none" stroke="gray" d="M403,1260.5L412,1260.5"></path></g><path id="node_outline54" fill="rgb(238, 243, 246)" stroke="rgb(115, 161, 191)" d="M417.5,1247.5h92a3,3,0,0,1,3,3v20a3,3,0,0,1,-3,3h-92a3,3,0,0,1,-3,-3v-20a3,3,0,0,1,3,-3z" stroke-width="1"></path><g id="node_text54" fill="black"><text id="kity_text_241" text-rendering="inherit" font-size="14" dy=".8em" y="1251.4000000953674" x="434.5">依赖组件</text></g></g><g id="minder_node40"><g id="node_expander52" style="cursor: pointer;"><path id="kity_path_449" fill="white" stroke="gray" d="M552.5,1260.5A6,6,0,1,1,540.5,1260.5A6,6,0,1,1,552.5,1260.5"></path><path id="kity_path_450" fill="none" stroke="gray" d="M542,1260.5L551,1260.5"></path></g><path id="node_outline53" fill="none" stroke="none" d="M557.5,1249.5h52a5,5,0,0,1,5,5v12a5,5,0,0,1,-5,5h-52a5,5,0,0,1,-5,-5v-12a5,5,0,0,1,5,-5z"></path><g id="node_text53" fill="black"><text id="kity_text_239" text-rendering="inherit" font-size="12" dy=".8em" y="1252.7000000476837" x="562.5">MySQL</text></g></g><g id="minder_node41"><g id="node_expander46" style="cursor: pointer;"><path id="kity_path_431" fill="white" stroke="gray" d="M654.5,1143.5A6,6,0,1,1,642.5,1143.5A6,6,0,1,1,654.5,1143.5"></path><path id="kity_path_432" fill="none" stroke="gray" d="M644,1143.5L653,1143.5"></path></g><path id="node_outline47" fill="none" stroke="none" d="M659.5,1132.5h47a5,5,0,0,1,5,5v12a5,5,0,0,1,-5,5h-47a5,5,0,0,1,-5,-5v-12a5,5,0,0,1,5,-5z"></path><g id="node_text47" fill="black"><text id="kity_text_227" text-rendering="inherit" font-size="12" dy=".8em" y="1135.7000000476837" x="664.5">慢查询</text></g></g><g id="minder_node42"><g id="node_expander42" style="cursor: pointer;"><path id="kity_path_419" fill="white" stroke="gray" d="M751.5,1065.5A6,6,0,1,1,739.5,1065.5A6,6,0,1,1,751.5,1065.5"></path><path id="kity_path_420" fill="none" stroke="gray" d="M741,1065.5L750,1065.5"></path></g><path id="node_outline43" fill="none" stroke="none" d="M756.5,1054.5h95a5,5,0,0,1,5,5v12a5,5,0,0,1,-5,5h-95a5,5,0,0,1,-5,-5v-12a5,5,0,0,1,5,-5z"></path><g id="node_text43" fill="black"><text id="kity_text_219" text-rendering="inherit" font-size="12" dy=".8em" y="1057.7000000476837" x="761.5">实时开启慢查询</text></g></g><g id="minder_node43"><g id="node_expander38" style="cursor: pointer;" display="none"><path id="kity_path_407" fill="white" stroke="gray" d="M896.5,987.5A6,6,0,1,1,884.5,987.5A6,6,0,1,1,896.5,987.5"></path><path id="kity_path_408" fill="none" stroke="gray"></path></g><path id="node_outline39" fill="none" stroke="none" d="M901.5,976.5h177a5,5,0,0,1,5,5v12a5,5,0,0,1,-5,5h-177a5,5,0,0,1,-5,-5v-12a5,5,0,0,1,5,-5z"></path><g id="node_text39" fill="black"><text id="kity_text_211" text-rendering="inherit" font-size="12" dy=".8em" y="979.7000000476837" x="906.5">show variables like '%slow%';</text></g></g><g id="minder_node44"><g id="node_expander39" style="cursor: pointer;" display="none"><path id="kity_path_410" fill="white" stroke="gray" d="M896.5,1039.5A6,6,0,1,1,884.5,1039.5A6,6,0,1,1,896.5,1039.5"></path><path id="kity_path_411" fill="none" stroke="gray"></path></g><path id="node_outline40" fill="none" stroke="none" d="M901.5,1028.5h177a5,5,0,0,1,5,5v12a5,5,0,0,1,-5,5h-177a5,5,0,0,1,-5,-5v-12a5,5,0,0,1,5,-5z"></path><g id="node_text40" fill="black"><text id="kity_text_213" text-rendering="inherit" font-size="12" dy=".8em" y="1031.7000000476837" x="906.5">show variables like '%long%';</text></g></g><g id="minder_node45"><g id="node_expander40" style="cursor: pointer;" display="none"><path id="kity_path_413" fill="white" stroke="gray" d="M896.5,1091.5A6,6,0,1,1,884.5,1091.5A6,6,0,1,1,896.5,1091.5"></path><path id="kity_path_414" fill="none" stroke="gray"></path></g><path id="node_outline41" fill="none" stroke="none" d="M901.5,1080.5h186a5,5,0,0,1,5,5v12a5,5,0,0,1,-5,5h-186a5,5,0,0,1,-5,-5v-12a5,5,0,0,1,5,-5z"></path><g id="node_text41" fill="black"><text id="kity_text_215" text-rendering="inherit" font-size="12" dy=".8em" y="1083.7000000476837" x="906.5">set global slow_query_log=ON</text></g></g><g id="minder_node46"><g id="node_expander41" style="cursor: pointer;" display="none"><path id="kity_path_416" fill="white" stroke="gray" d="M896.5,1143.5A6,6,0,1,1,884.5,1143.5A6,6,0,1,1,896.5,1143.5"></path><path id="kity_path_417" fill="none" stroke="gray"></path></g><path id="node_outline42" fill="none" stroke="none" d="M901.5,1132.5h199a5,5,0,0,1,5,5v12a5,5,0,0,1,-5,5h-199a5,5,0,0,1,-5,-5v-12a5,5,0,0,1,5,-5z"></path><g id="node_text42" fill="black"><text id="kity_text_217" text-rendering="inherit" font-size="12" dy=".8em" y="1135.7000000476837" x="906.5">set global long_query_time=秒数</text></g></g><g id="minder_node47"><g id="node_expander45" style="cursor: pointer;"><path id="kity_path_428" fill="white" stroke="gray" d="M751.5,1221.5A6,6,0,1,1,739.5,1221.5A6,6,0,1,1,751.5,1221.5"></path><path id="kity_path_429" fill="none" stroke="gray" d="M741,1221.5L750,1221.5"></path></g><path id="node_outline46" fill="none" stroke="none" d="M756.5,1210.5h60a5,5,0,0,1,5,5v12a5,5,0,0,1,-5,5h-60a5,5,0,0,1,-5,-5v-12a5,5,0,0,1,5,-5z"></path><g id="node_text46" fill="black"><text id="kity_text_225" text-rendering="inherit" font-size="12" dy=".8em" y="1213.7000000476837" x="761.5">实时查看</text></g></g><g id="minder_node48"><g id="node_expander43" style="cursor: pointer;" display="none"><path id="kity_path_422" fill="white" stroke="gray" d="M861.5,1195.5A6,6,0,1,1,849.5,1195.5A6,6,0,1,1,861.5,1195.5"></path><path id="kity_path_423" fill="none" stroke="gray"></path></g><path id="node_outline44" fill="none" stroke="none" d="M866.5,1184.5h126a5,5,0,0,1,5,5v12a5,5,0,0,1,-5,5h-126a5,5,0,0,1,-5,-5v-12a5,5,0,0,1,5,-5z"></path><g id="node_text44" fill="black"><text id="kity_text_221" text-rendering="inherit" font-size="12" dy=".8em" y="1187.7000000476837" x="871.5">show full processlist</text></g></g><g id="minder_node49"><g id="node_expander44" style="cursor: pointer;" display="none"><path id="kity_path_425" fill="white" stroke="gray" d="M861.5,1247.5A6,6,0,1,1,849.5,1247.5A6,6,0,1,1,861.5,1247.5"></path><path id="kity_path_426" fill="none" stroke="gray"></path></g><path id="node_outline45" fill="none" stroke="none" d="M866.5,1236.5h517a5,5,0,0,1,5,5v12a5,5,0,0,1,-5,5h-517a5,5,0,0,1,-5,-5v-12a5,5,0,0,1,5,-5z" stroke-width="3"></path><g id="node_text45" fill="black"><text id="kity_text_223" text-rendering="inherit" font-size="12" dy=".8em" y="1239.7000000476837" x="871.5">select info,time from information_schema.processlist where info is not null and time &gt; 5;</text></g></g><g id="minder_node50"><g id="node_expander48" style="cursor: pointer;"><path id="kity_path_437" fill="white" stroke="gray" d="M654.5,1299.5A6,6,0,1,1,642.5,1299.5A6,6,0,1,1,654.5,1299.5"></path><path id="kity_path_438" fill="none" stroke="gray" d="M644,1299.5L653,1299.5"></path></g><path id="node_outline49" fill="none" stroke="none" d="M659.5,1288.5h34a5,5,0,0,1,5,5v12a5,5,0,0,1,-5,5h-34a5,5,0,0,1,-5,-5v-12a5,5,0,0,1,5,-5z"></path><g id="node_text49" fill="black"><text id="kity_text_231" text-rendering="inherit" font-size="12" dy=".8em" y="1291.7000000476837" x="664.5">io高</text></g></g><g id="minder_node51"><g id="node_expander47" style="cursor: pointer;" display="none"><path id="kity_path_434" fill="white" stroke="gray" d="M738.5,1299.5A6,6,0,1,1,726.5,1299.5A6,6,0,1,1,738.5,1299.5"></path><path id="kity_path_435" fill="none" stroke="gray"></path></g><path id="node_outline48" fill="none" stroke="none" d="M743.5,1288.5h41a5,5,0,0,1,5,5v12a5,5,0,0,1,-5,5h-41a5,5,0,0,1,-5,-5v-12a5,5,0,0,1,5,-5z" stroke-width="3"></path><g id="node_text48" fill="black"><text id="kity_text_229" text-rendering="inherit" font-size="12" dy=".8em" y="1291.7000000476837" x="748.5">iotop</text></g></g><g id="minder_node52"><g id="node_expander51" style="cursor: pointer;"><path id="kity_path_446" fill="white" stroke="gray" d="M654.5,1377.5A6,6,0,1,1,642.5,1377.5A6,6,0,1,1,654.5,1377.5"></path><path id="kity_path_447" fill="none" stroke="gray" d="M644,1377.5L653,1377.5"></path></g><path id="node_outline52" fill="none" stroke="none" d="M659.5,1366.5h35a5,5,0,0,1,5,5v12a5,5,0,0,1,-5,5h-35a5,5,0,0,1,-5,-5v-12a5,5,0,0,1,5,-5z"></path><g id="node_text52" fill="black"><text id="kity_text_237" text-rendering="inherit" font-size="12" dy=".8em" y="1369.7000000476837" x="664.5">死锁</text></g></g><g id="minder_node53"><g id="node_expander49" style="cursor: pointer;" display="none"><path id="kity_path_440" fill="white" stroke="gray" d="M739.5,1351.5A6,6,0,1,1,727.5,1351.5A6,6,0,1,1,739.5,1351.5"></path><path id="kity_path_441" fill="none" stroke="gray"></path></g><path id="node_outline50" fill="none" stroke="none" d="M744.5,1340.5h183a5,5,0,0,1,5,5v12a5,5,0,0,1,-5,5h-183a5,5,0,0,1,-5,-5v-12a5,5,0,0,1,5,-5z"></path><g id="node_text50" fill="black"><text id="kity_text_233" text-rendering="inherit" font-size="12" dy=".8em" y="1343.7000000476837" x="749.5">show engine innodb status \G</text></g></g><g id="minder_node54"><g id="node_expander50" style="cursor: pointer;" display="none"><path id="kity_path_443" fill="white" stroke="gray" d="M739.5,1403.5A6,6,0,1,1,727.5,1403.5A6,6,0,1,1,739.5,1403.5"></path><path id="kity_path_444" fill="none" stroke="gray"></path></g><path id="node_outline51" fill="none" stroke="none" d="M744.5,1392.5h343a5,5,0,0,1,5,5v12a5,5,0,0,1,-5,5h-343a5,5,0,0,1,-5,-5v-12a5,5,0,0,1,5,-5z"></path><g id="node_text51" fill="black"><text id="kity_text_235" text-rendering="inherit" font-size="12" dy=".8em" y="1395.7000000476837" x="749.5">【MySQL 加锁处理分析】http://hedengcheng.com/?p=771</text></g></g></g></g></svg>